<?xml version="1.0" encoding="UTF-8" standalone="no"?>
<!-- Created with Inkscape (http://www.inkscape.org/) -->

<svg
   width="210mm"
   height="297mm"
   viewBox="0 0 210 297"
   version="1.1"
   id="svg1"
   inkscape:version="1.4 (86a8ad7, 2024-10-11)"
   sodipodi:docname="logodefinitivo.svg"
   xmlns:inkscape="http://www.inkscape.org/namespaces/inkscape"
   xmlns:sodipodi="http://sodipodi.sourceforge.net/DTD/sodipodi-0.dtd"
   xmlns="http://www.w3.org/2000/svg"
   xmlns:svg="http://www.w3.org/2000/svg">
  <sodipodi:namedview
     id="namedview1"
     pagecolor="#505050"
     bordercolor="#eeeeee"
     borderopacity="1"
     inkscape:showpageshadow="0"
     inkscape:pageopacity="0"
     inkscape:pagecheckerboard="0"
     inkscape:deskcolor="#505050"
     inkscape:document-units="mm"
     inkscape:zoom="0.68862935"
     inkscape:cx="653.472"
     inkscape:cy="478.48672"
     inkscape:window-width="1920"
     inkscape:window-height="991"
     inkscape:window-x="-9"
     inkscape:window-y="-9"
     inkscape:window-maximized="1"
     inkscape:current-layer="layer1" />
  <defs
     id="defs1">
    <linearGradient
       id="swatch79"
       inkscape:swatch="solid">
      <stop
         style="stop-color:#000000;stop-opacity:1;"
         offset="0"
         id="stop79" />
    </linearGradient>
    <linearGradient
       id="swatch58"
       inkscape:swatch="solid">
      <stop
         style="stop-color:#000000;stop-opacity:1;"
         offset="0"
         id="stop58" />
    </linearGradient>
    <inkscape:perspective
       sodipodi:type="inkscape:persp3d"
       inkscape:vp_x="-108.95926 : 95.882131 : 1"
       inkscape:vp_y="0 : 1342.0189 : 0"
       inkscape:vp_z="450.74123 : 147.96045 : 1"
       inkscape:persp3d-origin="122.94568 : 29.452191 : 1"
       id="perspective1" />
    <filter
       inkscape:collect="always"
       style="color-interpolation-filters:sRGB"
       id="filter86"
       x="-0.073203913"
       y="-0.15224278"
       width="1.1464078"
       height="1.3044856">
      <feGaussianBlur
         inkscape:collect="always"
         stdDeviation="3.7486346"
         id="feGaussianBlur86" />
    </filter>
    <filter
       inkscape:collect="always"
       style="color-interpolation-filters:sRGB"
       id="filter89"
       x="-0.53389093"
       y="-3.5590389"
       width="2.0677819"
       height="8.1180777">
      <feGaussianBlur
         inkscape:collect="always"
         stdDeviation="16.112876"
         id="feGaussianBlur89" />
    </filter>
  </defs>
  <g
     inkscape:label="Capa 1"
     inkscape:groupmode="layer"
     id="layer1"
     transform="translate(-13.063389,7.6843465)">
    <rect
       style="opacity:0.726852;mix-blend-mode:soft-light;fill:#1a1a1a;fill-opacity:1;stroke-width:0.490063"
       id="rect79"
       width="177.08115"
       height="166.10693"
       x="39.015999"
       y="57.688046"
       ry="78.334518" />
    <path
       id="rect79-8"
       style="fill:#1a1a1a;fill-opacity:0.393035;stroke-width:0.264583;filter:url(#filter86)"
       d="m 82.336848,127.20129 c -6.24894,5.81455 -10.15132,14.11396 -10.15132,23.3624 v 3.84214 c 0,17.66708 14.22296,31.89004 31.890052,31.89004 h 63.01165 c 12.10704,0 22.59449,-6.6807 27.99778,-16.57056 -5.68827,5.29285 -13.32008,8.52764 -21.73873,8.52764 h -63.01165 c -17.667092,0 -31.890052,-14.22296 -31.890052,-31.89004 v -3.84214 c 0,-5.56006 1.41085,-10.77765 3.89227,-15.31948 z"
       transform="matrix(1.4161472,0,0,2.5500668,-70.865052,-245.08397)" />
    <ellipse
       style="opacity:0.726852;fill:#1a1a1a;fill-opacity:0.393035;stroke-width:0.668322"
       id="path86"
       cx="111.93182"
       cy="128.30841"
       rx="12.310454"
       ry="13.925133" />
    <ellipse
       style="opacity:0.726852;fill:#1a1a1a;fill-opacity:0.393035;stroke-width:0.668322"
       id="path87"
       cx="135.13226"
       cy="148.69872"
       rx="6.1552272"
       ry="6.4652395" />
    <text
       xml:space="preserve"
       style="font-size:14.1111px;text-align:start;writing-mode:lr-tb;direction:ltr;text-anchor:start;opacity:0.659722;mix-blend-mode:normal;fill:#e5e5e5;fill-opacity:0;stroke-width:0.264583;filter:url(#filter89)"
       x="102.20181"
       y="202.86674"
       id="text87"><tspan
         id="tspan87"
         style="font-size:14.1111px;opacity:1;fill:#e5e5e5;fill-opacity:0;stroke-width:0.264583"
         x="102.20181"
         y="202.86674"
         sodipodi:role="line" /></text>
    <path
       style="opacity:1;fill:#1a1a1a;fill-opacity:0.439216;stroke-width:0.668322"
       d="m 45.862089,183.66785 c 2.902152,-0.401 6.004865,5.08637 8.52262,5.9679 4.342427,1.5204 10.478354,-3.0489 13.257412,-5.9679 0.499114,-0.52423 0.447874,-1.46509 0.946965,-1.98932 0.892839,-0.93781 3.856817,0.21073 5.681763,-2.98395 0.513558,-0.89906 0.451718,-2.07364 0.946939,-2.98395 0.745554,-1.37042 6.091306,-8.19925 6.628697,-8.95189 1.270503,-1.77928 1.51813,-4.23117 2.840909,-5.9679 0.710945,-0.93348 2.036099,-1.14403 2.840856,-1.98931 0.223304,-0.23455 0,-1.3262 0,-0.99466 0,2.6051 -0.65514,10.7619 -1.893927,12.93048 -1.900585,3.32718 -5.473131,7.29987 -6.628701,10.94118 -0.199636,0.62907 0.446395,1.52041 0,1.98932 -2.681728,2.8168 -1.736339,-3.14777 -2.840869,4.97324 -0.293613,2.15891 -2.538458,7.28024 -1.893904,7.95722 0.223296,0.23455 0.723742,-0.23454 0.946939,0 3.345259,3.51375 1.681847,3.31033 2.84087,6.96257 0.399296,1.25814 2.525221,0 3.787827,0 1.443355,0 4.422537,0.66132 5.681765,0 1.858732,-0.97618 3.145126,-5.29284 3.787838,-5.9679 0.223304,-0.23455 0.805794,0.29654 0.946947,0 0.582039,-1.22271 0.133825,-2.91116 0.946963,-3.97862 0.623542,-0.81869 2.056007,-0.34689 2.840858,-0.99466 3.689826,-3.04514 7.277434,-6.28293 10.416554,-9.94652 2.57754,-3.00818 4.3431,-6.68838 6.62873,-9.94654 2.13489,-3.0433 4.66729,-5.7823 6.62869,-8.95185 2.15549,-3.48316 3.66965,-7.3646 5.68175,-10.94117 2.09373,-3.7217 4.55497,-7.20715 6.62869,-10.94118 0.68704,-1.23709 -0.56718,-3.66259 0,-4.97327 0.92729,-2.14275 5.00622,-10.23159 7.57568,-12.93046 0.44639,-0.46888 0,1.3262 0,1.98929 0,1.98932 0,3.97861 0,5.9679 0,6.36531 0.99715,13.60891 0,19.89305 -0.88235,5.56078 -1.34819,11.17692 -1.89391,16.90911 -0.18855,1.97943 0.5989,4.0807 0,5.96791 -0.0999,0.31453 -0.8058,-0.29655 -0.94697,0 -1.00183,2.10457 -2.64905,17.70225 -4.7348,19.89305 -0.22328,0.23455 -0.72374,-0.23454 -0.94696,0 -0.22329,0.23455 0.16243,0.71033 0,0.99463 -0.812,1.42152 -2.02884,2.55712 -2.84087,3.97861 -0.57249,1.00225 -0.40339,4.40234 -0.94694,4.97328 -0.2233,0.23455 -0.63131,0 -0.94696,0 -0.6313,0.33154 -1.47044,0.40154 -1.89393,0.99466 -0.80961,1.13386 -1.30767,3.74171 -1.89391,4.97324 -0.79855,1.67752 -2.71648,2.47818 -3.78783,3.97862 -0.48568,0.68017 -0.39897,1.41373 -0.94696,1.98931 -0.45004,0.47271 -3.33777,1.51658 -3.78784,1.9893 -0.58007,0.60929 -0.80615,2.60312 -1.89389,2.98395 -0.59892,0.20968 -1.44753,-0.46889 -1.89393,0 -0.44641,0.46889 0.28232,1.39623 0,1.98932 -0.1534,0.32193 -3.40783,-1.24171 -4.73479,-2.98396 -0.62358,-0.8187 -0.63132,-1.98931 -0.94696,-2.98397"
       id="path96" />
    <path
       style="opacity:1;fill:#e6e6e6;fill-opacity:0.439216;stroke-width:0.668322"
       d="m 289.69987,140.9119 -5.68177,6.96257"
       id="path97" />
  </g>
</svg>
